<svg xmlns="http://www.w3.org/2000/svg"><style>:root svg:not(:target){display:none}</style><svg viewBox="0 0 24 24" fill="none" id="clock-white"><path d="M12 22.5C9.9233 22.5 7.89323 21.8842 6.16652 20.7304C4.4398 19.5767 3.09399 17.9368 2.29927 16.0182C1.50455 14.0996 1.29661 11.9884 1.70176 9.95156C2.1069 7.91476 3.10693 6.04383 4.57538 4.57538C6.04383 3.10693 7.91476 2.1069 9.95156 1.70176C11.9884 1.29661 14.0996 1.50455 16.0182 2.29927C17.9368 3.09399 19.5767 4.4398 20.7304 6.16652C21.8842 7.89323 22.5 9.9233 22.5 12C22.5 14.7848 21.3938 17.4555 19.4246 19.4246C17.4555 21.3938 14.7848 22.5 12 22.5ZM12 3C10.22 3 8.47992 3.52785 6.99987 4.51678C5.51983 5.50571 4.36628 6.91132 3.68509 8.55585C3.0039 10.2004 2.82567 12.01 3.17294 13.7558C3.5202 15.5016 4.37737 17.1053 5.63604 18.364C6.89472 19.6226 8.49836 20.4798 10.2442 20.8271C11.99 21.1743 13.7996 20.9961 15.4442 20.3149C17.0887 19.6337 18.4943 18.4802 19.4832 17.0001C20.4722 15.5201 21 13.78 21 12C21 9.61306 20.0518 7.32387 18.364 5.63604C16.6761 3.94822 14.387 3 12 3Z" fill="white"></path><path d="M15.4425 16.5L11.25 12.3075V5.25H12.75V11.685L16.5 15.4425L15.4425 16.5Z" fill="white"></path></svg><svg viewBox="0 0 24 24" fill="none" id="clock"><path d="M12 22.5a10.5 10.5 0 1 1 0-21 10.5 10.5 0 0 1 0 21Zm0-19.5a9 9 0 1 0 0 18 9 9 0 0 0 0-18Z" fill="#0347AE"></path><path d="m15.44 16.5-4.19-4.2v-7.05h1.5v6.44l3.75 3.75-1.06 1.06Z" fill="#0347AE"></path></svg><svg viewBox="0 0 32 32" fill="none" id="eye-white"><path d="M16 12C14.9391 12 13.9217 12.4214 13.1716 13.1716C12.4214 13.9217 12 14.9391 12 16C12 17.0609 12.4214 18.0783 13.1716 18.8284C13.9217 19.5786 14.9391 20 16 20C17.0609 20 18.0783 19.5786 18.8284 18.8284C19.5786 18.0783 20 17.0609 20 16C20 14.9391 19.5786 13.9217 18.8284 13.1716C18.0783 12.4214 17.0609 12 16 12ZM16 22.6667C14.2319 22.6667 12.5362 21.9643 11.2859 20.714C10.0357 19.4638 9.33333 17.7681 9.33333 16C9.33333 14.2319 10.0357 12.5362 11.2859 11.286C12.5362 10.0357 14.2319 9.33333 16 9.33333C17.7681 9.33333 19.4638 10.0357 20.714 11.286C21.9643 12.5362 22.6667 14.2319 22.6667 16C22.6667 17.7681 21.9643 19.4638 20.714 20.714C19.4638 21.9643 17.7681 22.6667 16 22.6667ZM16 6C9.33333 6 3.64 10.1467 1.33333 16C3.64 21.8533 9.33333 26 16 26C22.6667 26 28.36 21.8533 30.6667 16C28.36 10.1467 22.6667 6 16 6Z" fill="white"></path></svg><svg viewBox="0 0 32 32" fill="none" id="eye"><path d="M30.91 15.6c-.04-.1-1.1-2.45-3.45-4.8a15.9 15.9 0 0 0-11.46-4.8 15.9 15.9 0 0 0-11.46 4.8 17.6 17.6 0 0 0-3.45 4.8 1 1 0 0 0 0 .8c.04.1 1.1 2.45 3.45 4.8 3.14 3.14 7.1 4.8 11.46 4.8 4.36 0 8.32-1.66 11.46-4.8a17.68 17.68 0 0 0 3.45-4.8 1 1 0 0 0 0-.8Zm-14.91 8.4c-3.85 0-7.2-1.4-10-4.16a16.69 16.69 0 0 1-2.88-3.84 17.2 17.2 0 0 1 2.89-3.84 13.76 13.76 0 0 1 9.99-4.16c3.85 0 7.2 1.4 10 4.16a16.69 16.69 0 0 1 2.88 3.84c-.9 1.68-4.83 8-12.88 8Zm0-14a6 6 0 1 0 0 12 6 6 0 0 0 0-12Zm0 10a4 4 0 1 1 0-8 4 4 0 0 1 0 8Z" fill="#0347AE"></path></svg><svg viewBox="0 0 32 32" fill="none" id="instagram-white"><path d="M10.4 2.66602H21.6C25.8667 2.66602 29.3333 6.13268 29.3333 10.3993V21.5993C29.3333 23.6504 28.5186 25.6174 27.0683 27.0676C25.618 28.5179 23.651 29.3327 21.6 29.3327H10.4C6.13334 29.3327 2.66667 25.866 2.66667 21.5993V10.3993C2.66667 8.34834 3.48143 6.38134 4.93171 4.93106C6.38199 3.48078 8.349 2.66602 10.4 2.66602ZM10.1333 5.33268C8.8603 5.33268 7.6394 5.8384 6.73923 6.73857C5.83905 7.63874 5.33334 8.85964 5.33334 10.1327V21.866C5.33334 24.5193 7.48 26.666 10.1333 26.666H21.8667C23.1397 26.666 24.3606 26.1603 25.2608 25.2601C26.161 24.36 26.6667 23.1391 26.6667 21.866V10.1327C26.6667 7.47935 24.52 5.33268 21.8667 5.33268H10.1333ZM23 7.33268C23.442 7.33268 23.866 7.50828 24.1785 7.82084C24.4911 8.1334 24.6667 8.55732 24.6667 8.99935C24.6667 9.44138 24.4911 9.8653 24.1785 10.1779C23.866 10.4904 23.442 10.666 23 10.666C22.558 10.666 22.1341 10.4904 21.8215 10.1779C21.5089 9.8653 21.3333 9.44138 21.3333 8.99935C21.3333 8.55732 21.5089 8.1334 21.8215 7.82084C22.1341 7.50828 22.558 7.33268 23 7.33268ZM16 9.33268C17.7681 9.33268 19.4638 10.0351 20.714 11.2853C21.9643 12.5355 22.6667 14.2312 22.6667 15.9993C22.6667 17.7675 21.9643 19.4632 20.714 20.7134C19.4638 21.9636 17.7681 22.666 16 22.666C14.2319 22.666 12.5362 21.9636 11.286 20.7134C10.0357 19.4632 9.33334 17.7675 9.33334 15.9993C9.33334 14.2312 10.0357 12.5355 11.286 11.2853C12.5362 10.0351 14.2319 9.33268 16 9.33268ZM16 11.9993C14.9391 11.9993 13.9217 12.4208 13.1716 13.1709C12.4214 13.9211 12 14.9385 12 15.9993C12 17.0602 12.4214 18.0776 13.1716 18.8278C13.9217 19.5779 14.9391 19.9993 16 19.9993C17.0609 19.9993 18.0783 19.5779 18.8284 18.8278C19.5786 18.0776 20 17.0602 20 15.9993C20 14.9385 19.5786 13.9211 18.8284 13.1709C18.0783 12.4208 17.0609 11.9993 16 11.9993Z" fill="white"></path></svg><svg viewBox="0 0 32 32" fill="none" id="instagram"><path d="M10.4 2.67h11.2a7.74 7.74 0 0 1 7.73 7.73v11.2a7.73 7.73 0 0 1-7.73 7.73h-11.2a7.74 7.74 0 0 1-7.73-7.73v-11.2a7.73 7.73 0 0 1 7.73-7.73Zm-.27 2.66a4.8 4.8 0 0 0-4.8 4.8v11.74a4.8 4.8 0 0 0 4.8 4.8h11.74a4.8 4.8 0 0 0 4.8-4.8v-11.74a4.8 4.8 0 0 0-4.8-4.8h-11.74Zm12.87 2a1.67 1.67 0 1 1 0 3.34 1.67 1.67 0 0 1 0-3.34Zm-7 2a6.67 6.67 0 1 1 0 13.34 6.67 6.67 0 0 1 0-13.34Zm0 2.67a4 4 0 1 0 0 8 4 4 0 0 0 0-8Z" fill="#0347AE"></path></svg><svg viewBox="0 0 32 32" fill="none" id="mail-white"><path d="M2.33333 4H29.6667C30.9547 4 32 5.04533 32 6.33333V25C32 25.6188 31.7542 26.2123 31.3166 26.6499C30.879 27.0875 30.2855 27.3333 29.6667 27.3333H2.33333C1.71449 27.3333 1.121 27.0875 0.683417 26.6499C0.245833 26.2123 0 25.6188 0 25L0 6.33333C0 5.04533 1.04533 4 2.33333 4ZM2 9.88267V25C2 25.184 2.14933 25.3333 2.33333 25.3333H29.6667C29.7551 25.3333 29.8399 25.2982 29.9024 25.2357C29.9649 25.1732 30 25.0884 30 25V9.88267L17.3067 18.46C16.5173 18.9933 15.4827 18.9933 14.6933 18.46L2 9.88267ZM2 6.33333V7.46933L15.8133 16.8027C15.8685 16.8399 15.9335 16.8598 16 16.8598C16.0665 16.8598 16.1315 16.8399 16.1867 16.8027L30 7.46933V6.33333C30 6.24493 29.9649 6.16014 29.9024 6.09763C29.8399 6.03512 29.7551 6 29.6667 6H2.33333C2.24493 6 2.16014 6.03512 2.09763 6.09763C2.03512 6.16014 2 6.24493 2 6.33333Z" fill="white"></path></svg><svg viewBox="0 0 32 32" fill="none" id="mail"><path d="M2.33 4h27.34a2.33 2.33 0 0 1 2.33 2.33v18.67a2.33 2.33 0 0 1-2.33 2.33h-27.34a2.33 2.33 0 0 1-2.33-2.33v-18.67a2.33 2.33 0 0 1 2.33-2.33Zm-.33 5.88v15.12c0 .18.15.33.33.33h27.34a.33.33 0 0 0 .33-.33v-15.12l-12.7 8.58c-.78.53-1.82.53-2.6 0l-12.7-8.58Zm0-3.55v1.14l13.81 9.33a.33.33 0 0 0 .38 0l13.81-9.33v-1.14a.33.33 0 0 0-.33-.33h-27.34a.33.33 0 0 0-.33.33Z" fill="#0347AE"></path></svg><svg viewBox="0 0 24 24" fill="none" id="map-white"><path d="M12 14C14.206 14 16 12.206 16 10C16 7.794 14.206 6 12 6C9.794 6 8 7.794 8 10C8 12.206 9.794 14 12 14ZM12 8C13.103 8 14 8.897 14 10C14 11.103 13.103 12 12 12C10.897 12 10 11.103 10 10C10 8.897 10.897 8 12 8Z" fill="white"></path><path d="M11.42 21.814C11.5892 21.9349 11.792 21.9998 12 21.9998C12.208 21.9998 12.4107 21.9349 12.58 21.814C12.884 21.599 20.029 16.44 20 10C20 5.589 16.411 2 12 2C7.589 2 4 5.589 4 9.995C3.971 16.44 11.116 21.599 11.42 21.814ZM12 4C15.309 4 18 6.691 18 10.005C18.021 14.443 13.612 18.428 12 19.735C10.389 18.427 5.979 14.441 6 10C6 6.691 8.691 4 12 4Z" fill="white"></path></svg><svg viewBox="0 0 24 24" fill="none" id="map"><path d="M12 14a4 4 0 1 0 0-8 4 4 0 0 0 0 8Zm0-6a2 2 0 1 1 0 4 2 2 0 0 1 0-4Z" fill="#0347AE"></path><path d="M11.42 21.81a1 1 0 0 0 1.16 0c.3-.21 7.45-5.37 7.42-11.81a8 8 0 0 0-16 0c-.03 6.44 7.12 11.6 7.42 11.81Zm.58-17.81a6 6 0 0 1 6 6c.02 4.44-4.39 8.43-6 9.73-1.61-1.3-6.02-5.29-6-9.73a6 6 0 0 1 6-6Z" fill="#0347AE"></path></svg><svg viewBox="0 0 24 24" fill="none" id="tel-white"><g clip-path="url(#tel-white_0)"><path d="M5.48123 1.99244C5.39268 1.87853 5.28091 1.78477 5.15334 1.71738C5.02576 1.64999 4.88531 1.61051 4.74131 1.60158C4.59731 1.59264 4.45305 1.61444 4.31813 1.66554C4.1832 1.71664 4.06069 1.79586 3.95873 1.89794L2.40773 3.45044C1.68323 4.17644 1.41623 5.20394 1.73273 6.10544C3.04783 9.83611 5.18446 13.2236 7.98473 16.0174C10.7786 18.8177 14.1661 20.9543 17.8967 22.2694C18.7982 22.5859 19.8257 22.3189 20.5517 21.5944L22.1027 20.0434C22.2048 19.9415 22.284 19.819 22.3351 19.684C22.3862 19.5491 22.408 19.4049 22.3991 19.2609C22.3902 19.1169 22.3507 18.9764 22.2833 18.8488C22.2159 18.7213 22.1221 18.6095 22.0082 18.5209L18.5477 15.8299C18.4259 15.7358 18.2844 15.6704 18.1337 15.6387C17.983 15.607 17.8272 15.6098 17.6777 15.6469L14.3927 16.4674C13.9542 16.5763 13.495 16.5701 13.0596 16.4495C12.6242 16.3289 12.2272 16.0979 11.9072 15.7789L8.22323 12.0934C7.90401 11.7736 7.67276 11.3767 7.55188 10.9413C7.431 10.5059 7.42457 10.0466 7.53323 9.60794L8.35523 6.32294C8.39237 6.17352 8.3952 6.01763 8.36351 5.86696C8.33181 5.71628 8.26642 5.57474 8.17223 5.45294L5.48123 1.99244ZM2.82623 0.766942C3.08873 0.504367 3.40408 0.300638 3.75134 0.169284C4.09861 0.0379306 4.46985 -0.0180424 4.84041 0.00508205C5.21096 0.0282065 5.57236 0.129899 5.90061 0.303408C6.22885 0.476916 6.51642 0.71827 6.74423 1.01144L9.43523 4.47044C9.92873 5.10494 10.1027 5.93144 9.90773 6.71144L9.08723 9.99644C9.04511 10.1666 9.04755 10.3447 9.09431 10.5137C9.14108 10.6826 9.2306 10.8367 9.35423 10.9609L13.0397 14.6464C13.1642 14.7703 13.3184 14.86 13.4877 14.9068C13.6569 14.9535 13.8354 14.9558 14.0057 14.9134L17.2892 14.0929C17.6742 13.9973 18.0758 13.9901 18.464 14.0719C18.8521 14.1537 19.2167 14.3225 19.5302 14.5654L22.9892 17.2564C24.2327 18.2239 24.3467 20.0614 23.2337 21.1729L21.6827 22.7239C20.5727 23.8339 18.9137 24.3214 17.3672 23.7769C13.4082 22.3858 9.81404 20.1196 6.85223 17.1469C3.87979 14.1856 1.61356 10.5919 0.222233 6.63344C-0.320767 5.08844 0.166733 3.42794 1.27673 2.31794L2.82623 0.766942Z" fill="white"></path></g><defs><clipPath id="tel-white_0"><rect width="24" height="24" fill="white"></rect></clipPath></defs></svg><svg viewBox="0 0 24 24" fill="none" id="tel"><g clip-path="url(#tel_0)"><path d="M5.48 2a1.02 1.02 0 0 0-1.52-.1l-1.55 1.55c-.73.73-1 1.75-.68 2.66a26.4 26.4 0 0 0 6.25 9.9 26.4 26.4 0 0 0 9.92 6.26c.9.32 1.93.05 2.65-.68l1.55-1.55a1.02 1.02 0 0 0-.1-1.52l-3.45-2.69a1.02 1.02 0 0 0-.87-.18l-3.29.82a2.62 2.62 0 0 1-2.48-.7l-3.69-3.68a2.62 2.62 0 0 1-.69-2.48l.83-3.29a1.02 1.02 0 0 0-.19-.87l-2.69-3.46Zm-2.65-1.23a2.62 2.62 0 0 1 3.91.24l2.7 3.46c.49.63.66 1.46.47 2.24l-.82 3.29a1.02 1.02 0 0 0 .26.96l3.69 3.69a1.02 1.02 0 0 0 .97.26l3.28-.82a2.63 2.63 0 0 1 2.24.48l3.46 2.69a2.6 2.6 0 0 1 .24 3.91l-1.55 1.55a4.17 4.17 0 0 1-4.31 1.06 27.9 27.9 0 0 1-10.52-6.63 27.9 27.9 0 0 1-6.63-10.52 4.17 4.17 0 0 1 1.06-4.31l1.55-1.55Z" fill="#0347AE"></path></g><defs><clipPath id="tel_0"><path fill="#fff" d="M0 0h24v24h-24z"></path></clipPath></defs></svg><svg viewBox="0 0 32 32" fill="none" id="whatsapp-white"><path d="M25.4 6.54609C24.1776 5.31133 22.7216 4.33232 21.1169 3.66616C19.5121 3.00001 17.7908 2.66004 16.0533 2.6661C8.77334 2.6661 2.84 8.59943 2.84 15.8794C2.84 18.2128 3.45334 20.4794 4.6 22.4794L2.73334 29.3328L9.73334 27.4928C11.6667 28.5461 13.84 29.1061 16.0533 29.1061C23.3333 29.1061 29.2667 23.1728 29.2667 15.8928C29.2667 12.3594 27.8933 9.03943 25.4 6.54609ZM16.0533 26.8661C14.08 26.8661 12.1467 26.3328 10.4533 25.3328L10.0533 25.0928L5.89334 26.1861L7 22.1328L6.73334 21.7194C5.637 19.9687 5.05486 17.9451 5.05334 15.8794C5.05334 9.82609 9.98667 4.89276 16.04 4.89276C18.9733 4.89276 21.7333 6.03943 23.8 8.11943C24.8233 9.13805 25.6343 10.3496 26.1859 11.684C26.7375 13.0183 27.0187 14.4489 27.0133 15.8928C27.04 21.9461 22.1067 26.8661 16.0533 26.8661ZM22.08 18.6528C21.7467 18.4928 20.12 17.6928 19.8267 17.5728C19.52 17.4661 19.3067 17.4128 19.08 17.7328C18.8533 18.0661 18.2267 18.8128 18.04 19.0261C17.8533 19.2528 17.6533 19.2794 17.32 19.1061C16.9867 18.9461 15.92 18.5861 14.6667 17.4661C13.68 16.5861 13.0267 15.5061 12.8267 15.1728C12.64 14.8394 12.8 14.6661 12.9733 14.4928C13.12 14.3461 13.3067 14.1061 13.4667 13.9194C13.6267 13.7328 13.6933 13.5861 13.8 13.3728C13.9067 13.1461 13.8533 12.9594 13.7733 12.7994C13.6933 12.6394 13.0267 11.0128 12.76 10.3461C12.4933 9.7061 12.2133 9.7861 12.0133 9.77276H11.3733C11.1467 9.77276 10.8 9.85276 10.4933 10.1861C10.2 10.5194 9.34667 11.3194 9.34667 12.9461C9.34667 14.5728 10.5333 16.1461 10.6933 16.3594C10.8533 16.5861 13.0267 19.9194 16.3333 21.3461C17.12 21.6928 17.7333 21.8928 18.2133 22.0394C19 22.2928 19.72 22.2528 20.2933 22.1728C20.9333 22.0794 22.2533 21.3728 22.52 20.5994C22.8 19.8261 22.8 19.1728 22.7067 19.0261C22.6133 18.8794 22.4133 18.8128 22.08 18.6528Z" fill="white"></path></svg><svg viewBox="0 0 32 32" fill="none" id="whatsapp"><path d="M25.4 6.55a13.09 13.09 0 0 0-9.35-3.88 13.24 13.24 0 0 0-11.45 19.81l-1.87 6.85 7-1.84a13.22 13.22 0 0 0 15.67-20.94Zm-9.35 20.32c-1.97 0-3.9-.54-5.6-1.54l-.4-.24-4.16 1.1 1.11-4.06-.27-.41a11 11 0 0 1 9.3-16.83c2.94 0 5.7 1.15 7.77 3.23a10.91 10.91 0 0 1 3.21 7.77 10.95 10.95 0 0 1-10.96 10.98Zm6.03-8.22c-.33-.16-1.96-.96-2.25-1.08-.31-.1-.52-.16-.75.16a20.8 20.8 0 0 1-1.04 1.3c-.19.22-.39.25-.72.08-.33-.16-1.4-.52-2.65-1.64a10.09 10.09 0 0 1-1.84-2.3c-.19-.33-.03-.5.14-.68.15-.14.34-.38.5-.57.16-.19.22-.33.33-.55a.63.63 0 0 0-.03-.57c-.08-.16-.74-1.79-1.01-2.45-.27-.64-.55-.56-.75-.58h-.64c-.22 0-.57.08-.88.42-.29.33-1.14 1.13-1.14 2.76 0 1.62 1.18 3.2 1.34 3.41.16.23 2.34 3.56 5.64 4.99.79.34 1.4.54 1.88.69.79.25 1.51.21 2.08.13.64-.09 1.96-.8 2.23-1.57.28-.77.28-1.43.19-1.57-.1-.15-.3-.22-.63-.38Z" fill="#0347AE"></path></svg></svg>